<?xml version="1.0" encoding="UTF-8"?><svg id="Layer_1" xmlns="http://www.w3.org/2000/svg" viewBox="0 0 37.31 17.43"><path d="M6.47,0c3.77,0,6.23,2.03,6.23,4.94,0,2.17-1.66,3.82-2.99,5.1l-3.97,3.66v.08h7.17v3.25H.24v-2.82l6.48-5.96c1.38-1.32,1.89-2.13,1.89-3.16s-.9-1.9-2.28-1.9-2.46,.98-2.46,2.35v.08H0v-.08C0,2.24,2.59,0,6.47,0Z"/><path d="M15.13,12.16h3.83c.2,1.2,1.31,2.03,2.72,2.03,1.59,0,2.67-1.1,2.67-2.68s-1.07-2.76-2.66-2.76c-1.09,0-2.04,.51-2.57,1.36h-3.73L16.18,.41h11.12V3.66h-7.85l-.31,4.1h.08c.63-1.19,1.93-1.93,3.68-1.93,3.15,0,5.43,2.34,5.43,5.58,0,3.61-2.69,6.03-6.69,6.03-3.76,0-6.46-2.17-6.51-5.27Z"/><path d="M29.58,4.12c0-2.2,1.66-3.86,3.87-3.86s3.87,1.66,3.87,3.86-1.68,3.87-3.87,3.87-3.87-1.67-3.87-3.87Zm5.44,0c0-.9-.68-1.62-1.58-1.62s-1.59,.72-1.59,1.62,.72,1.63,1.59,1.63,1.58-.76,1.58-1.63Z"/></svg>