<?xml version="1.0" encoding="UTF-8"?><svg id="Layer_1" xmlns="http://www.w3.org/2000/svg" viewBox="0 0 101.09 21.69"><path d="M0,21.69V0H15.24V5.07H6.37v4.16H14.4v4.78H6.37v7.68H0Z"/><path d="M32.37,21.69h-14.88V0h6.37V16.62h8.51v5.07Z"/><path d="M47.96,17.38h-6.61l-1.13,4.31h-6.49L40.81,0h8l7.08,21.69h-6.79l-1.13-4.31Zm-5.46-4.49h4.3l-2.09-7.88h-.12l-2.09,7.88Z"/><path d="M59.86,21.69V5.07h-5.71V0h17.79V5.07h-5.71V21.69h-6.37Z"/><path d="M93.17,17.38h-6.61l-1.13,4.31h-6.49L86.02,0h8l7.08,21.69h-6.79l-1.13-4.31Zm-5.46-4.49h4.3l-2.09-7.88h-.12l-2.09,7.88Z"/></svg>